<svg width="835" height="36" viewBox="0 0 835 36" fill="none" xmlns="http://www.w3.org/2000/svg">
<g opacity="0.4" clip-path="url(#clip0_19_526)">
<rect width="66.5354" height="35.0757" transform="translate(-6.10352e-05 0.0557861)" fill="white" style="mix-blend-mode:color-burn"/>
<path fill-rule="evenodd" clip-rule="evenodd" d="M66.5359 17.5949C66.5359 27.2795 51.6396 35.1305 33.2697 35.1305C14.8949 35.1305 0.000549316 27.2795 0.000549316 17.5949C0.000549316 7.91039 14.8949 0.0593262 33.2697 0.0593262C51.6396 0.0593262 66.5359 7.91039 66.5359 17.5949Z" fill="#C1C9CF"/>
<path fill-rule="evenodd" clip-rule="evenodd" d="M65.159 17.5809C65.159 26.4751 50.8753 33.6853 33.2572 33.6853C15.6383 33.6853 1.35492 26.4751 1.35492 17.5809C1.35492 8.68704 15.6383 1.47717 33.2572 1.47717C50.8753 1.47709 65.159 8.68704 65.159 17.5809ZM33.2572 2.74502C16.3293 2.74502 2.60545 9.38743 2.60545 17.5808C2.60545 25.7743 16.3293 32.4167 33.2572 32.4167C50.1846 32.4167 63.9079 25.7743 63.9079 17.5808C63.9079 9.38743 50.1846 2.74502 33.2572 2.74502Z" fill="#414B47"/>
<path fill-rule="evenodd" clip-rule="evenodd" d="M63.1147 17.5808C63.1147 25.3339 49.747 31.6192 33.2573 31.6192C16.7671 31.6192 3.39951 25.3339 3.39951 17.5808C3.39951 9.82824 16.7671 3.54333 33.2573 3.54333C49.7471 3.54333 63.1147 9.82815 63.1147 17.5808ZM52.3927 11.0086H47.2719L46.6481 12.8011H49.9626L46.1819 14.1171L45.932 14.844L51.7498 12.9262L52.3927 11.0086ZM19.7435 14.1548H17.6575C17.6575 14.1548 19.5908 8.97467 19.7458 8.58305C20.0216 7.88917 20.1863 7.93691 20.1863 7.93691H17.3052C17.6619 8.10848 17.3459 8.78471 17.3459 8.78471C17.3459 8.78471 15.0383 15.2449 14.8775 15.5676C14.7168 15.891 14.5964 15.9316 14.5964 15.9316H19.5858L20.2837 14.0183C20.2236 14.2005 19.7435 14.1548 19.7435 14.1548ZM28.4955 15.9233H30.8455C30.8455 15.9233 30.6845 15.6836 30.7851 15.4214C30.9243 15.0572 32.171 11.6462 32.171 11.6462L32.713 15.9233H34.8418L37.6324 8.31516C37.6324 8.31516 37.7466 7.95832 37.9023 7.95832L35.6404 7.95163C35.6404 7.95163 35.7051 8.21425 35.6245 8.41625C35.5447 8.61825 34.2588 12.0703 34.2588 12.0703L33.7568 7.95171H31.3274C31.3274 7.95171 31.4531 8.15338 31.3727 8.37536C31.3071 8.55545 28.7971 15.4816 28.7971 15.4816C28.7971 15.4816 28.6365 15.9233 28.4955 15.9233ZM39.2399 7.95389C39.2399 7.95389 39.4406 8.27687 39.1789 9.0235C38.9178 9.77071 36.8696 15.3221 36.8696 15.3221C36.8696 15.3221 36.7084 15.8443 36.4881 15.9458L39.7013 15.9421C39.7013 15.9421 43.5965 16.0868 44.8018 11.9708C44.8018 11.9708 46.328 7.91317 41.9099 7.95389H39.2399ZM39.5807 14.1038C39.5807 14.1038 39.591 14.1007 39.9519 14.1007C40.4986 14.1007 41.511 13.9795 42.1912 12.3143C43.3092 9.57716 41.7494 9.66971 41.7494 9.66971H41.1468L39.5807 14.1038ZM11.0054 22.3691H16.1261L16.7492 20.5763H13.4351L17.2156 19.2606L17.4661 18.534L11.6481 20.4518L11.0054 22.3691ZM19.9792 25.6759C19.8983 25.6759 19.8983 25.4153 19.8983 25.4153L20.8401 22.9029C20.8401 22.9029 22.0134 25.2173 22.094 25.3789C22.1744 25.5406 22.1337 25.6751 22.1337 25.6751H24.9406C24.6729 25.6751 24.3967 25.1637 24.3967 25.1637L22.9994 22.6431C24.9539 22.6431 25.5791 20.6956 25.5791 20.6956C26.5429 17.6001 23.2989 17.6807 23.2989 17.6807H19.9792C20.2199 17.95 20.0323 18.5153 20.0323 18.5153C20.0323 18.5153 17.9706 24.4408 17.8103 24.8987C17.6495 25.3562 17.3551 25.6759 17.3551 25.6759H19.9792ZM21.9686 19.5188L21.4245 21.1266H21.9333C21.9333 21.1266 22.9243 21.2143 23.2899 20.4223C23.2899 20.4223 23.7177 19.5147 22.522 19.5147C22.2603 19.5147 21.9686 19.5188 21.9686 19.5188ZM49.0228 25.7052C48.822 25.7093 48.9618 25.2153 48.9618 25.2153L49.8022 22.9321C49.8022 22.9321 50.935 25.2469 51.0145 25.409C51.0951 25.5703 51.0551 25.7048 51.0551 25.7048H53.9617C53.6937 25.7048 53.399 25.1934 53.399 25.1934L52.0011 22.672C53.9566 22.672 54.5448 20.7948 54.5448 20.7948C55.5715 17.5535 52.3017 17.7105 52.3017 17.7105H49.0083C49.2497 17.9797 49.0622 18.545 49.0622 18.545C49.0622 18.545 46.9146 24.4932 46.7534 24.9503C46.5929 25.4089 46.2845 25.7007 46.2845 25.7007L49.0228 25.7052ZM50.9367 21.1556C50.9367 21.1556 51.9201 21.2304 52.2211 20.4558C52.5763 19.5434 51.6898 19.5675 51.6898 19.5675H50.9629L50.4275 21.1556H50.9367ZM29.0502 25.8736C31.9477 25.8736 33.6719 23.0166 33.6719 20.9668C33.6719 18.8166 32.7928 17.475 30.7851 17.475C28.2235 17.475 26.5526 19.4288 26.1213 21.858C25.725 24.0919 26.9799 25.8736 29.0502 25.8736ZM29.2327 23.9844C29.9554 24.1185 30.75 23.5957 31.165 21.925C31.7942 19.3969 30.6344 19.3761 30.4228 19.3501C29.7815 19.2713 28.9255 20.0138 28.5777 21.5618C28.4184 22.2688 28.2495 23.8012 29.2327 23.9844ZM34.3597 17.7105C34.3597 17.7105 34.5589 17.818 34.5589 18.329V25.2469C34.5589 25.2469 34.5317 25.6256 34.3893 25.7048H36.5421C36.5421 25.7048 36.5421 25.5427 36.7558 25.2737C36.9702 25.0046 41.4415 18.9758 41.4415 18.9758C41.4415 18.9758 42.4612 17.7105 42.7285 17.7105H39.6473C39.6473 17.7105 39.8888 17.8722 39.7013 18.1682C39.5138 18.4644 36.775 22.5825 36.775 22.5825L36.8093 18.4287C36.8093 18.4287 36.8045 17.7627 37.0704 17.7067L34.3597 17.7105ZM47.3753 19.5965L48.0714 17.7087L42.8508 17.7092C42.8508 17.7092 43.0379 17.8753 42.7976 18.548C42.5562 19.2216 40.441 24.9533 40.441 24.9533C40.441 24.9533 40.0662 25.7067 39.9597 25.7067H45.3408L45.9836 23.7959C45.9836 23.7959 45.9035 23.9033 45.3947 23.9033H43.1185L43.6009 22.6114H45.3674C45.3674 22.6114 45.7427 22.5847 45.8229 22.6924L46.5456 20.6501C46.5456 20.6501 46.4928 20.8349 46.01 20.8349H44.2964L44.8059 19.4088H46.9742C46.9742 19.4088 47.2689 19.368 47.3753 19.5965ZM20.1579 15.9305H22.7335C22.7335 15.9305 22.7255 15.7317 22.7927 15.6025C22.9151 15.3693 23.2346 14.8065 23.2346 14.8065H25.8268L25.8318 15.5086C25.8318 15.5086 25.8451 15.7505 25.6543 15.9372H28.2249C28.2249 15.9372 28.034 15.8295 27.9989 15.5117L27.6764 8.48664C27.6764 8.48664 27.6625 8.03766 27.875 7.9431H25.325C25.325 7.9431 25.5036 8.165 25.1621 8.66966C24.8211 9.17441 20.4648 15.6678 20.4648 15.6678C20.4648 15.6678 20.3782 15.8347 20.1579 15.9305ZM25.7774 10.662L24.3461 13.0031H25.798L25.7774 10.662Z" fill="#414B47"/>
</g>
<g opacity="0.4" clip-path="url(#clip1_19_526)">
<rect width="81.266" height="28.2174" transform="translate(205.535 3.48499)" fill="white" style="mix-blend-mode:color-burn"/>
<path d="M232.199 10.2048L229.086 17.7477L230.394 10.2048H226.987L224.821 26.2389H228.499L235.696 10.2048H232.199ZM237.162 19.468H240.118L240.975 16.6229H238.02L239.08 13.0941H242.103L242.983 10.2048H236.531L231.702 26.2389H238.042L239.171 23.1953H236.034L237.162 19.468ZM217.899 29.5229C216.128 29.5229 214.46 29.0841 213 28.3105L212.131 30.068C213.853 30.9683 215.816 31.4781 217.899 31.4781C221.837 31.4781 225.344 29.6562 227.608 26.8191H224.919C223.071 28.4975 220.606 29.5229 217.899 29.5229ZM220.084 23.4449V25.1016L224.254 21.9723L220.218 18.2642V19.8683H215.914L220.218 9.87553V17.2386L223.704 20.4613L223.79 3.48499H219.976L206.042 31.6137L210.669 31.7023L214.408 23.4449H220.084ZM208.883 24.3496C208.014 22.849 207.517 21.1109 207.517 19.2581C207.517 14.0977 211.369 9.82713 216.385 9.10254L217.403 7.04914C210.807 7.30702 205.54 12.6741 205.54 19.2582C205.54 21.9007 206.388 24.3474 207.831 26.3464L208.883 24.3496ZM223.697 26.2389V23.2098L220.08 26.2389H223.697ZM275.133 18.6299C275.968 18.6299 276.442 18.1447 276.577 17.6815L278.224 12.2339C278.54 11.1753 278.066 10.2049 276.6 10.2049H270.395L265.567 26.2389H268.974L271.027 19.4019H272.155C272.561 19.4019 272.606 19.6886 272.516 19.9533L270.621 26.239H274.028L275.787 20.3944C276.148 19.2475 275.652 18.7181 275.133 18.6299ZM274.592 13.447L273.689 16.4244C273.531 16.9096 273.238 17.042 272.9 17.042H271.726L273.012 12.7853H274.073C274.592 12.7853 274.727 13.0279 274.592 13.447ZM248.939 10.2048L247.067 16.4023L246.954 10.2048H244.044L239.215 26.2389H242.419L244.382 19.8429L244.675 26.2389H247.405L252.234 10.2048H248.939ZM282.939 13.0941H285.917L286.797 10.2048H281.54C280.728 10.2048 279.916 10.4254 279.532 11.5502L277.66 17.7697C277.321 18.9386 277.66 19.7106 279.081 19.7106H280.886C281.089 19.7106 281.089 19.7988 281.044 19.9311L280.254 22.6439C280.119 23.0409 280.029 23.1953 279.397 23.1953H276.554L275.629 26.2389H281.202C281.901 26.2389 282.646 25.9081 282.826 25.2684L284.699 19.0489C285.173 17.483 284.406 16.8214 283.187 16.8214H281.36L282.33 13.5572C282.443 13.2043 282.691 13.0941 282.939 13.0941ZM255.933 16.6229L255.076 19.468H255.775L254.535 23.5703H253.384C252.933 23.5703 252.73 23.3938 252.865 22.9307L255.685 13.5793C255.798 13.1823 255.979 13.094 256.34 13.094H259.656L260.536 10.2048H255.099C254.016 10.2048 253.271 10.5136 252.91 11.7045L249.436 23.2614C248.804 25.3787 250.09 26.2388 251.624 26.2388H253.722L253.361 27.496L257.152 25.6213L259.859 16.6228H255.933V16.6229ZM263.514 19.468H266.47L267.327 16.6229H264.371L265.432 13.0941H268.455L269.335 10.2048H262.882L258.054 26.2389H264.394L265.522 23.1953H262.386L263.514 19.468Z" fill="black"/>
</g>
<g clip-path="url(#clip2_19_526)">
<rect width="65.2714" height="30.9648" transform="translate(425.801 2.11121)" fill="white" style="mix-blend-mode:color-burn"/>
<path d="M432.801 13.2955V4.54612C432.801 4.22192 432.833 4.02748 433.384 4.02748H440.805C442.101 4.02748 442.814 5.12945 443.333 7.20325L443.754 8.85621H445.018C445.244 4.15762 445.438 2.11597 445.438 2.11597C445.438 2.11597 442.263 2.47232 440.383 2.47232H430.889L425.801 2.31022V3.67132L427.518 3.99533C428.717 4.2223 429.009 4.48124 429.106 5.58341C429.106 5.58341 429.204 8.82386 429.204 14.171C429.204 19.5175 429.106 22.726 429.106 22.726C429.106 23.698 428.717 24.0543 427.518 24.2819L425.801 24.6061V25.9664L430.889 25.8047H439.379C441.291 25.8047 445.731 25.9664 445.731 25.9664C445.827 24.7996 446.476 19.5175 446.573 18.9349H445.374L444.11 21.819C443.106 24.0869 441.648 24.2492 440.027 24.2492H435.198C433.578 24.2492 432.8 23.601 432.8 22.2077V14.8191C432.8 14.8191 436.332 14.8191 437.563 14.9165C438.471 14.9815 439.022 15.2407 439.314 16.5044L439.703 18.1895H441.095L440.999 13.9439L441.193 9.66671H439.8L439.346 11.5461C439.054 12.7774 438.86 13.0048 437.596 13.134C436.171 13.2964 432.8 13.2639 432.8 13.2639V13.2961H432.801V13.2955ZM452.017 5.45365C451.563 7.46276 451.109 9.01811 449.521 10.0552C448.549 10.703 447.577 10.9296 447.189 10.9622V12.1935H450.073V22.1419C450.073 24.9291 451.92 26.2904 454.383 26.2904C456.295 26.2904 458.271 25.4803 458.952 23.7948L458.271 22.9198C457.947 23.471 456.91 24.2809 455.614 24.2809C454.188 24.2809 453.411 23.3085 453.411 20.8462V12.0645L458.207 12.4213L458.466 10.2171L453.411 10.4118V5.4858L452.017 5.45365ZM462.257 20.7557L461.026 20.7881C461.091 21.5008 461.123 22.4085 461.123 23.251C461.123 24.1259 461.091 24.9361 461.026 25.3248C461.026 25.3248 463.489 26.2313 465.984 26.2313C469.354 26.2313 472.044 24.6111 472.044 21.4353C472.044 15.9919 463.878 16.8022 463.878 13.1397C463.878 11.6169 465.239 11.0334 466.729 11.0334C467.896 11.0334 468.868 11.4546 469.063 12.0709L469.873 14.5012L471.072 14.4365C471.17 13.1401 471.234 11.6494 471.429 10.4506C470.391 9.99688 468.22 9.73717 466.86 9.73717C463.683 9.73717 461.124 11.1308 461.124 14.2419C461.124 19.6534 469.095 18.5516 469.095 22.5381C469.095 23.9633 468.22 24.968 466.244 24.968C464.429 24.968 463.522 24.0285 463.166 23.0883L462.257 20.7557ZM481.789 24.4994C479.913 29.74 477.616 31.0976 475.546 31.0976C474.672 31.0976 474.252 30.7091 474.122 30.0955L473.637 27.5718L472.278 27.6365C472.02 29.1247 471.761 30.7749 471.406 32.1332C472.214 32.7469 473.572 33.0711 474.64 33.0711C476.872 33.0711 480.268 32.7794 483.373 25.4048L488.581 13.1135C489.002 12.1105 489.163 12.0135 490.393 11.528L491.072 11.2698V10.1376L487.999 10.2993L484.7 10.1376V11.2698L485.54 11.528C486.381 11.7873 486.77 12.1105 486.77 12.6929C486.77 12.9838 486.672 13.2751 486.51 13.7275C486.025 14.9575 483.017 22.2674 482.209 23.8204L483.017 23.5288C481.593 20.0032 479.427 14.1156 479.103 13.1137C479.038 12.9195 479.006 12.7578 479.006 12.5953C479.006 12.078 479.362 11.6573 480.138 11.4958L481.206 11.27V10.1378L476.774 10.2995L473.248 10.1378V11.27L473.831 11.4639C474.639 11.7226 474.834 11.9492 475.319 13.0812C478.003 19.2273 479.265 22.5908 480.978 26.9904L481.789 24.4994Z" fill="#999999"/>
</g>
<g opacity="0.4" clip-path="url(#clip3_19_526)">
<rect width="32.5636" height="31.4143" transform="translate(630.073 1.88647)" fill="white" style="mix-blend-mode:color-burn"/>
<path d="M630.073 5.53572C630.073 4.47798 630.439 3.60537 631.173 2.91787C631.906 2.23034 632.86 1.8866 634.033 1.8866C635.186 1.8866 636.118 2.22504 636.831 2.902C637.564 3.6001 637.931 4.50971 637.931 5.63091C637.931 6.64632 637.574 7.49248 636.862 8.16944C636.129 8.86753 635.165 9.21658 633.97 9.21658H633.939C632.786 9.21658 631.854 8.86753 631.141 8.16944C630.429 7.47134 630.073 6.59343 630.073 5.53572ZM630.481 33.3008V12.1041H637.459V33.3008H630.481ZM641.325 33.3008H648.303V21.4649C648.303 20.7245 648.387 20.1533 648.555 19.7514C648.848 19.0322 649.293 18.424 649.891 17.9269C650.488 17.4297 651.237 17.1812 652.138 17.1812C654.485 17.1812 655.658 18.7783 655.658 21.9726V33.3008H662.636V21.1476C662.636 18.0168 661.903 15.6422 660.436 14.0239C658.969 12.4056 657.031 11.5964 654.621 11.5964C651.918 11.5964 649.812 12.7705 648.303 15.1186V15.1821H648.272L648.303 15.1186V12.1041H641.325C641.367 12.7811 641.388 14.8859 641.388 18.4187C641.388 21.9515 641.367 26.9122 641.325 33.3008Z" fill="black"/>
</g>
<g opacity="0.4" clip-path="url(#clip4_19_526)">
<rect width="32.4969" height="32.4969" transform="translate(801.636 1.34521)" fill="white" style="mix-blend-mode:color-burn"/>
<path fill-rule="evenodd" clip-rule="evenodd" d="M804.886 1.34521H830.883C832.678 1.34521 834.133 2.80003 834.133 4.5949V30.5924C834.133 32.3873 832.678 33.8421 830.883 33.8421H804.886C803.091 33.8421 801.636 32.3873 801.636 30.5924V4.5949C801.636 2.80003 803.091 1.34521 804.886 1.34521Z" fill="#010101"/>
<path fill-rule="evenodd" clip-rule="evenodd" d="M822.041 31.2421C823.03 31.2421 823.832 30.447 823.832 29.4662C823.832 28.4854 823.03 27.6902 822.041 27.6902H821.772C822.76 27.6902 823.562 28.4854 823.562 29.4662C823.562 30.447 822.76 31.2421 821.772 31.2421H822.041Z" fill="#C1C9CF"/>
<path fill-rule="evenodd" clip-rule="evenodd" d="M821.747 27.6902H821.478C820.489 27.6902 819.687 28.4854 819.687 29.4662C819.687 30.447 820.489 31.2421 821.478 31.2421H821.747C820.758 31.2421 819.957 30.447 819.957 29.4662C819.957 28.4854 820.758 27.6902 821.747 27.6902Z" fill="#C1C9CF"/>
<path d="M821.76 30.3299C822.241 30.3299 822.631 29.9433 822.631 29.4664C822.631 28.9895 822.241 28.6029 821.76 28.6029C821.279 28.6029 820.889 28.9895 820.889 29.4664C820.889 29.9433 821.279 30.3299 821.76 30.3299Z" fill="#010101"/>
<path fill-rule="evenodd" clip-rule="evenodd" d="M808.135 26.8877V27.7879H809.19V31.218H810.245V27.8122H811.103L811.397 26.8877H808.135ZM816.769 26.8877V27.7879H817.823V31.218H818.878V27.8122H819.736L820.03 26.8877H816.769ZM811.594 27.3985C811.594 27.1165 811.824 26.8877 812.108 26.8877C812.393 26.8877 812.623 27.1165 812.623 27.3985C812.623 27.6806 812.393 27.9094 812.108 27.9094C811.824 27.9093 811.594 27.6806 811.594 27.3985ZM811.594 28.2744H812.623V31.218H811.594V28.2744ZM813.065 26.8877V31.218H814.095V30.099L814.414 29.8068L815.42 31.2423H816.523L815.076 29.1501L816.376 27.885H815.125L814.095 28.9067V26.8877H813.065ZM824.175 26.8877V31.218H825.205V30.099L825.524 29.8068L826.53 31.2423H827.634L826.186 29.1501L827.486 27.885H826.236L825.205 28.9067V26.8877H824.175Z" fill="white"/>
<path fill-rule="evenodd" clip-rule="evenodd" d="M822.586 11.8983C824.008 12.9146 825.751 13.5127 827.634 13.5127V9.89243C827.277 9.89257 826.922 9.85541 826.574 9.78155V12.6313C824.691 12.6313 822.949 12.0332 821.526 11.0168V18.4047C821.526 22.1005 818.528 25.0963 814.831 25.0963C813.451 25.0963 812.169 24.6794 811.104 23.9645C812.319 25.2069 814.015 25.9777 815.891 25.9777C819.588 25.9777 822.586 22.9819 822.586 19.286V11.8983H822.586ZM823.894 8.24588C823.167 7.45205 822.689 6.42606 822.586 5.29179V4.82617H821.581C821.834 6.26773 822.697 7.49936 823.894 8.24588ZM813.442 21.1286C813.036 20.5962 812.817 19.945 812.818 19.2754C812.818 17.5851 814.189 16.2146 815.88 16.2146C816.195 16.2144 816.509 16.2628 816.809 16.358V12.6569C816.458 12.6088 816.104 12.5884 815.75 12.5959V15.4767C815.449 15.3815 815.135 15.3331 814.82 15.3333C813.129 15.3333 811.758 16.7038 811.758 18.3943C811.758 19.5895 812.443 20.6245 813.442 21.1286Z" fill="#C1C9CF"/>
<path fill-rule="evenodd" clip-rule="evenodd" d="M821.527 11.0168C822.95 12.0332 824.692 12.6313 826.574 12.6313V9.78155C825.524 9.55798 824.594 9.00917 823.894 8.24588C822.697 7.49936 821.835 6.26773 821.582 4.82617H818.943V19.2858C818.937 20.9715 817.569 22.3364 815.881 22.3364C814.886 22.3364 814.003 21.8626 813.443 21.1286C812.444 20.6245 811.758 19.5895 811.758 18.3943C811.758 16.7038 813.129 15.3333 814.821 15.3333C815.145 15.3333 815.457 15.3838 815.75 15.4767V12.5959C812.118 12.6709 809.196 15.6375 809.196 19.286C809.196 21.1072 809.924 22.7583 811.104 23.9646C812.17 24.6795 813.452 25.0964 814.832 25.0964C818.529 25.0964 821.527 22.1005 821.527 18.4048V11.0168Z" fill="white"/>
<path fill-rule="evenodd" clip-rule="evenodd" d="M826.573 9.78164V9.01108C825.626 9.01251 824.697 8.74732 823.893 8.24584C824.605 9.02444 825.542 9.56137 826.573 9.78164ZM821.581 4.82626C821.557 4.68851 821.538 4.54983 821.526 4.41056V3.94495H817.882V18.4048C817.877 20.0903 816.508 21.4552 814.82 21.4552C814.324 21.4552 813.856 21.3377 813.442 21.1286C814.002 21.8627 814.885 22.3365 815.88 22.3365C817.568 22.3365 818.937 20.9716 818.943 19.2859V4.82626H821.581ZM815.749 12.596V11.7757C815.445 11.734 815.138 11.7132 814.831 11.7134C811.133 11.7134 808.135 14.7093 808.135 18.4048C808.135 20.7216 809.313 22.7635 811.104 23.9646C809.923 22.7583 809.195 21.1072 809.195 19.2859C809.195 15.6376 812.117 12.671 815.749 12.596Z" fill="#C1C9CF"/>
<path fill-rule="evenodd" clip-rule="evenodd" d="M821.772 31.2421C822.761 31.2421 823.562 30.447 823.562 29.4662C823.562 28.4854 822.761 27.6902 821.772 27.6902H821.747C820.759 27.6902 819.957 28.4854 819.957 29.4662C819.957 30.447 820.759 31.2421 821.747 31.2421H821.772ZM820.889 29.4662C820.889 28.9891 821.279 28.6027 821.76 28.6027C822.24 28.6027 822.63 28.9891 822.63 29.4662C822.63 29.9433 822.24 30.33 821.76 30.33C821.279 30.3298 820.889 29.9433 820.889 29.4662Z" fill="white"/>
</g>
<defs>
<clipPath id="clip0_19_526">
<rect width="66.5354" height="35.0757" fill="white" transform="translate(-6.10352e-05 0.0557861)"/>
</clipPath>
<clipPath id="clip1_19_526">
<rect width="81.266" height="28.2174" fill="white" transform="translate(205.535 3.48499)"/>
</clipPath>
<clipPath id="clip2_19_526">
<rect width="65.2714" height="30.9648" fill="white" transform="translate(425.801 2.11121)"/>
</clipPath>
<clipPath id="clip3_19_526">
<rect width="32.5636" height="31.4143" fill="white" transform="translate(630.073 1.88647)"/>
</clipPath>
<clipPath id="clip4_19_526">
<rect width="32.4969" height="32.4969" fill="white" transform="translate(801.636 1.34521)"/>
</clipPath>
</defs>
</svg>
