<svg width="40" height="42" viewBox="0 0 40 42" fill="none" xmlns="http://www.w3.org/2000/svg">
<path d="M39.0358 20.7059C39.0359 21.8556 38.6769 22.9769 38.0084 23.9148C37.3399 24.8527 36.395 25.5609 35.3043 25.9415C35.0106 26.0035 34.7191 26.0802 34.431 26.1671C32.4349 26.786 30.6763 27.9963 29.3903 29.636C28.1043 31.2757 27.3522 33.2668 27.2345 35.3431C27.2116 35.7641 27.2143 36.186 27.2425 36.6066C27.1342 37.5971 26.7598 38.5403 26.1585 39.3371C25.5571 40.1339 24.7511 40.7549 23.8252 41.1349C22.8992 41.5149 21.8874 41.6398 20.8961 41.4965C19.9049 41.3532 18.9707 40.947 18.1918 40.3205C17.4129 39.6941 16.818 38.8706 16.4696 37.9364C16.1212 37.0023 16.0322 35.9921 16.2119 35.012C16.3916 34.0319 16.8335 33.118 17.491 32.3663C18.1484 31.6147 18.9973 31.0531 19.9484 30.7404C20.1647 30.6916 20.3802 30.6348 20.5949 30.5701C22.6533 29.9547 24.4655 28.7119 25.7756 27.0171C27.0857 25.3224 27.8277 23.2612 27.8969 21.1245C27.9052 20.865 27.9052 20.6055 27.8969 20.3461C27.8031 18.2456 27.0595 16.2251 25.7678 14.5607C24.4761 12.8964 22.6992 11.6693 20.68 11.0471C20.4248 10.967 20.1662 10.8993 19.9065 10.8418C18.957 10.5151 18.1139 9.93937 17.4663 9.17547C16.8187 8.41157 16.3905 7.48785 16.2271 6.50191C16.0637 5.51597 16.1711 4.50443 16.5379 3.57418C16.9048 2.64393 17.5174 1.82953 18.3112 1.21701C19.105 0.604501 20.0504 0.216634 21.0475 0.0943964C22.0446 -0.0278408 23.0563 0.120092 23.9759 0.522563C24.8954 0.925035 25.6886 1.5671 26.2716 2.3809C26.8545 3.19471 27.2057 4.15004 27.2878 5.14594C27.2776 5.42571 27.2799 5.70999 27.2878 5.98638C27.3909 8.09352 28.1474 10.1172 29.4535 11.7795C30.7595 13.4417 32.551 14.6609 34.5819 15.2696C34.7853 15.3305 34.9894 15.3843 35.1943 15.4309C36.3118 15.7954 37.285 16.5017 37.9748 17.449C38.6647 18.3963 39.0361 19.5362 39.0358 20.7059Z" fill="white"/>
<path d="M0.70681 34.8377C0.781394 33.692 1.21127 32.5975 1.93724 31.705C2.66321 30.8124 3.64955 30.1656 4.76043 29.8538C5.06288 29.8109 5.3608 29.7537 5.65418 29.6823C7.89824 29.1418 9.8936 27.8648 11.3179 26.0573C12.7423 24.2498 13.5124 22.0176 13.504 19.7211C13.6758 18.74 14.1101 17.823 14.7612 17.0663C15.4123 16.3097 16.2562 15.7414 17.2042 15.4211C18.1523 15.1008 19.1696 15.0402 20.1493 15.2458C21.129 15.4514 22.035 15.9155 22.7722 16.5895C23.5093 17.2635 24.0505 18.1225 24.3387 19.0762C24.627 20.0299 24.6518 21.0433 24.4105 22.0098C24.1693 22.9764 23.6708 23.8605 22.9675 24.5694C22.2642 25.2783 21.382 25.7857 20.4135 26.0385C20.1866 26.0746 19.9617 26.1186 19.7386 26.1705C17.645 26.6553 15.7572 27.7817 14.3416 29.3908C12.9261 31 12.0543 33.0106 11.8492 35.1389C11.8242 35.3894 11.8106 35.6409 11.8049 35.8925C11.7035 36.6801 11.4334 37.4369 11.0128 38.1117C10.5922 38.7866 10.0309 39.3639 9.36682 39.8045C8.70274 40.2452 7.95133 40.539 7.16332 40.6661C6.37532 40.7933 5.56906 40.7507 4.79899 40.5414C4.60051 40.467 4.40089 40.3993 4.19787 40.3395C3.1077 39.9048 2.18332 39.1389 1.55646 38.151C0.929596 37.1631 0.632254 36.0036 0.70681 34.8377Z" fill="white"/>
</svg>
